{"asset":{"copyright":"","generator":"Aspose GLTF","version":"2.0"},"accessors":[{"name":"POSITION","bufferView":0,"componentType":5126,"count":44071,"max":[10128.4130859375,-1541.930908203125,7.462798011937527E-14],"min":[35.20861053466797,-12867.2197265625,-126.03545379638672],"type":"VEC3"},{"bufferView":1,"componentType":5123,"count":86860,"type":"SCALAR"}],"bufferViews":[{"buffer":0,"byteLength":528852,"byteStride":12,"target":34962},{"buffer":0,"byteLength":173720,"byteOffset":528852,"target":34963}],"buffers":[{"byteLength":702572,"uri":"model.bin"}],"materials":[{"name":"mat000000","pbrMetallicRoughness":{"baseColorFactor":[0.0,0.0,0.0,1.0]}}],"meshes":[{"name":"mesh","primitives":[{"attributes":{"POSITION":0},"indices":1,"material":0,"mode":1}]}],"nodes":[{"mesh":0}],"scenes":[{"name":"Default","nodes":[0]}]}